PathFileType	4	(X/Y/Z)	 s03c0102.trc
DataRate	CameraRate	NumFrames	NumMarkers	Units	OrigDataRate	OrigDataStartFrame	OrigNumFrames
200	200	4	52	mm	200	1501	2000
Frame#	Time	racr			lacr			c7			jug			rlel			rdr			llel			ldr			s2			lic			ric			lasi			rasi			rpsi			lpsi			rgt			lgt			rth1			rth2			rth3			rth4			rlfc			rmfc			rsh1			rsh2			rsh3			rsh4			rlmal			rmmal			rcal			rtoe			rmt5			rmt1			lth1			lth2			lth4			lth3			llfc			lmfc			lsh1			lsh2			lsh3			lsh4			llmal			lmmal			lcal			ltoe			lmt1			lmt5			SBIKE			LBIKE			RBIKE			
		X1	Y1	Z1	X2	Y2	Z2	X3	Y3	Z3	X4	Y4	Z4	X5	Y5	Z5	X6	Y6	Z6	X7	Y7	Z7	X8	Y8	Z8	X9	Y9	Z9	X10	Y10	Z10	X11	Y11	Z11	X12	Y12	Z12	X13	Y13	Z13	X14	Y14	Z14	X15	Y15	Z15	X16	Y16	Z16	X17	Y17	Z17	X18	Y18	Z18	X19	Y19	Z19	X20	Y20	Z20	X21	Y21	Z21	X22	Y22	Z22	X23	Y23	Z23	X24	Y24	Z24	X25	Y25	Z25	X26	Y26	Z26	X27	Y27	Z27	X28	Y28	Z28	X29	Y29	Z29	X30	Y30	Z30	X31	Y31	Z31	X32	Y32	Z32	X33	Y33	Z33	X34	Y34	Z34	X35	Y35	Z35	X36	Y36	Z36	X37	Y37	Z37	X38	Y38	Z38	X39	Y39	Z39	X40	Y40	Z40	X41	Y41	Z41	X42	Y42	Z42	X43	Y43	Z43	X44	Y44	Z44	X45	Y45	Z45	X46	Y46	Z46	X47	Y47	Z47	X48	Y48	Z48	X49	Y49	Z49	X50	Y50	Z50	X51	Y51	Z51	X52	Y52	Z52	
1501	7.5050	433.701620	1409.031000	-31.458330	483.541040	1413.233757	-336.250014	394.169136	1503.263383	-188.664775	399.155297	1331.104954	-194.495722	494.024241	1143.246442	37.166729	724.030179	958.809895	-29.127644	564.437787	1170.182461	-439.465517	751.524540	926.951600	-406.293631	-108.993943	1208.079257	-276.133943	84.511424	1248.040432	-437.073752	14.424703	1261.089605	-70.293659	98.826623	1176.446788	-394.045591	62.874769	1193.561385	-115.630785	-94.742082	1265.792865	-235.124874	-74.537502	1260.033371	-313.896186	-3.222273	1187.689537	-60.767249	23.549747	1112.810901	-452.663630	132.263496	1119.118718	-31.532429	220.978161	1123.854008	-27.060361	298.464609	1087.009223	-22.541766	228.875868	1156.362524	-44.649162	423.557596	1033.798913	-37.509629	442.323043	1015.748617	-167.358508	355.149365	886.079060	-23.626935	333.046604	800.746937	-37.641728	270.945683	738.331559	-41.851978	361.295183	787.519776	-59.546975	200.475121	621.723597	-64.753053	231.487186	630.134787	-149.235695	129.402628	593.686378	-105.702187	421.496653	489.800177	-114.212098	305.338924	511.768052	-42.411092	331.983067	519.790904	-154.289918	109.814064	979.041051	-472.504182	175.009254	921.890269	-478.511510	205.464724	942.253937	-473.404243	204.261974	837.826224	-471.772278	288.057169	735.103815	-452.876314	291.079571	722.646219	-329.611151	220.839984	576.391490	-468.813874	220.626592	492.859771	-450.509789	175.676911	415.263706	-440.974108	254.036434	486.255105	-429.783186	136.040566	299.316583	-418.231254	173.056595	302.912818	-335.398908	67.786384	294.801444	-371.785494	325.092031	124.965173	-347.392742	242.508801	174.748956	-313.512913	215.428330	163.862872	-431.142118	-214.415757	946.594220	-233.824989	-6.150016	83.947589	-435.348010	-11.342536	81.719264	-35.064329	
1502	7.5100	432.823608	1409.112041	-30.116193	483.925329	1412.744725	-334.505903	394.024303	1503.075432	-187.374141	398.883048	1330.913568	-192.985869	493.739387	1143.432904	38.219879	723.776363	959.290050	-28.788097	563.784285	1169.508145	-438.798522	751.433935	926.853073	-406.204467	-109.089302	1208.579541	-276.336459	84.267337	1248.129406	-436.125426	13.481518	1261.913172	-70.482902	98.521574	1176.639045	-393.893606	62.742876	1193.410016	-115.312452	-94.686429	1266.125700	-235.415743	-74.675408	1260.830157	-314.004156	-4.003939	1187.066746	-60.849209	23.642387	1113.478271	-452.720180	131.743200	1116.981666	-31.635392	220.484930	1121.044052	-27.078323	297.735631	1083.870678	-22.913688	228.564606	1153.851088	-44.193521	422.759042	1029.610046	-38.045486	440.917239	1011.978740	-167.885288	355.948101	880.738115	-23.762596	335.029889	795.117338	-37.496605	273.816834	731.738326	-41.533167	363.452307	782.123678	-59.384526	205.534953	613.544708	-63.775114	235.437221	623.139822	-148.461522	134.689250	583.263751	-104.543262	430.335337	490.593969	-113.855344	313.236013	507.759067	-41.248820	339.592952	517.366063	-153.621873	111.055361	981.340065	-472.478272	176.841573	924.910196	-478.780995	207.035694	945.472037	-473.421655	206.960430	841.038700	-472.838190	290.741259	738.289770	-454.490733	294.620461	726.035889	-331.137873	220.968548	580.483832	-469.606159	219.379924	496.973929	-451.033573	173.141733	420.221536	-441.118256	252.966820	490.399583	-431.385791	131.778549	305.417094	-418.172226	169.415284	308.174878	-335.315830	63.574217	303.134743	-371.317759	314.960978	124.551192	-347.352863	234.223549	177.018272	-313.475497	206.778072	167.481168	-430.909303	-214.447030	946.591452	-233.770900	-6.156104	83.993674	-435.324648	-11.341753	81.756244	-35.047327	
1503	7.5150	431.968077	1409.201160	-28.965855	484.249818	1412.394002	-332.943620	393.850847	1502.942257	-186.179320	398.602935	1330.780534	-191.655139	493.421837	1143.736832	39.117312	723.504832	959.703129	-28.488316	562.996427	1168.838656	-438.231754	751.245911	926.815863	-406.088955	-109.191314	1208.903680	-276.297350	82.314075	1247.365077	-431.346514	12.701772	1262.478568	-70.400087	98.173816	1176.905610	-393.713006	62.665004	1193.172992	-114.888596	-94.629422	1266.302916	-235.512279	-74.864103	1261.354776	-313.966495	-4.656796	1185.922119	-61.001754	23.656544	1114.227278	-452.701683	131.279924	1114.190826	-31.579085	220.020314	1117.546172	-26.911876	297.009256	1079.724330	-22.985106	228.411336	1150.489574	-43.543037	421.706785	1024.328045	-38.535023	439.394139	1006.912245	-168.161180	356.469807	874.276609	-23.650282	336.738555	788.296608	-37.215883	276.370809	724.134476	-41.123432	365.356932	775.734768	-59.094986	210.455485	604.564701	-62.792391	239.919309	614.354943	-147.688788	139.846749	571.777986	-103.260246	438.688453	490.930948	-113.395007	321.085929	502.762098	-40.019563	346.882599	513.898629	-152.706371	112.271992	983.657234	-472.461035	178.699518	927.991089	-478.807432	208.621709	948.868878	-473.356334	209.722170	844.507247	-473.769418	293.634593	741.775714	-456.002913	298.455173	729.517765	-332.390327	221.273348	584.803841	-470.249400	218.389617	501.486356	-451.520733	170.832683	425.516719	-441.096767	251.886818	494.259377	-431.906667	127.836437	311.852742	-417.991837	165.818070	313.863342	-335.008272	59.530254	311.664531	-370.783991	304.952141	124.737508	-347.306231	226.172178	179.884383	-313.461528	198.342175	171.616732	-430.562950	-214.452526	946.588938	-233.721841	-6.149290	84.000056	-435.320214	-11.331405	81.733903	-35.041677	
1504	7.5200	431.213485	1409.380412	-27.995784	484.533331	1412.072925	-331.590236	393.656944	1502.799479	-185.247690	398.427404	1330.638338	-190.485121	493.130629	1144.069274	39.801492	723.185361	960.124462	-28.205000	562.078245	1168.288130	-437.930916	751.068575	926.880831	-405.930648	-109.331402	1209.107766	-276.092700	82.049369	1247.640188	-430.996236	12.064812	1262.633448	-70.264936	97.794046	1177.349942	-393.535720	62.641241	1192.852890	-114.361431	-94.589166	1266.266768	-235.402717	-75.109165	1261.783897	-313.682133	-5.075826	1184.407006	-61.386149	24.006756	1114.975554	-452.252685	130.675294	1111.103861	-30.679582	219.646135	1113.235517	-26.611426	296.201339	1074.533866	-22.998753	228.408500	1146.279592	-42.677223	420.363114	1018.031992	-38.890165	437.749565	1000.789096	-168.213842	356.730533	866.704172	-23.406169	338.209009	780.453804	-36.878298	278.726797	715.450626	-40.676992	366.987482	768.268875	-58.697351	215.193183	594.385813	-62.008270	243.892361	604.942139	-147.280595	144.975387	559.224289	-102.164211	446.325568	490.430506	-113.033460	328.960823	496.757769	-38.912170	353.834821	509.517473	-151.661839	113.476711	986.079307	-472.316783	180.571265	931.249724	-478.697083	210.182157	952.382509	-473.252689	212.585537	848.067686	-474.482864	296.772357	745.473767	-457.389690	302.491900	733.203013	-333.687888	221.804426	589.396796	-470.860546	217.522063	506.106305	-451.836246	168.739094	431.109151	-441.046927	250.994732	498.410491	-432.369889	124.065477	318.600412	-417.703647	162.540748	319.712342	-334.778055	55.727335	320.482139	-370.240148	295.057833	125.590890	-347.304510	218.141747	183.170329	-313.377822	190.108316	176.297064	-430.254662	-214.457682	946.557735	-233.662882	-6.133997	84.013262	-435.348300	-11.339587	81.728268	-35.039916	
